<svg width="348" height="134" viewBox="0 0 348 134" fill="none" xmlns="http://www.w3.org/2000/svg">
<g clip-path="url(#clip0_1_78)">
<path d="M57 5.397V28.335L76.542 18.148L57 5.397Z" fill="#006466" fill-opacity="0.72"/>
<path d="M81.809 19.95V38.66L64.933 29.032L81.809 19.95Z" fill="#312244" fill-opacity="0.9"/>
<path d="M80.839 0V14.752L67.811 6.367L80.839 0Z" fill="#065A60"/>
</g>
<g clip-path="url(#clip1_1_78)">
<path d="M52.112 48.709L0 78.784V46.076L52.112 16V48.709Z" fill="url(#paint0_linear_1_78)"/>
<path d="M66.804 117.037L0 78.858V46.149L66.804 84.328V117.037Z" fill="#4D194D"/>
</g>
<g clip-path="url(#clip2_1_78)">
<path d="M57.265 62.709L109.377 92.784V60.076L57.265 30V62.709Z" fill="url(#paint1_linear_1_78)"/>
<path d="M38 133.74L109.377 92.858V60.149L38 101.031V133.74Z" fill="url(#paint2_linear_1_78)"/>
</g>
<path d="M137.557 68.8C134.391 68.8 131.557 68.05 129.057 66.55C126.591 65.05 124.657 62.9333 123.257 60.2C121.857 57.4333 121.157 54.2 121.157 50.5C121.157 46.7667 121.857 43.5333 123.257 40.8C124.657 38.0333 126.591 35.9 129.057 34.4C131.557 32.8667 134.391 32.1 137.557 32.1C140.724 32.1 143.524 32.8667 145.957 34.4C148.424 35.9 150.357 38.0333 151.757 40.8C153.191 43.5333 153.907 46.7667 153.907 50.5C153.907 54.2 153.191 57.4333 151.757 60.2C150.357 62.9333 148.424 65.05 145.957 66.55C143.524 68.05 140.724 68.8 137.557 68.8ZM137.557 63.2C139.657 63.2 141.474 62.6833 143.007 61.65C144.541 60.5833 145.724 59.1 146.557 57.2C147.424 55.2667 147.857 53.0333 147.857 50.5C147.857 47.9333 147.424 45.7 146.557 43.8C145.724 41.8667 144.541 40.3833 143.007 39.35C141.474 38.2833 139.657 37.75 137.557 37.75C135.491 37.75 133.674 38.2833 132.107 39.35C130.541 40.3833 129.324 41.8667 128.457 43.8C127.624 45.7 127.207 47.9333 127.207 50.5C127.207 53.0333 127.624 55.2667 128.457 57.2C129.324 59.1 130.541 60.5833 132.107 61.65C133.674 62.6833 135.491 63.2 137.557 63.2ZM158.736 68V43.95H163.786L164.086 46.8C164.752 45.8667 165.636 45.0667 166.736 44.4C167.836 43.7 169.136 43.35 170.636 43.35C173.136 43.35 175.169 44.15 176.736 45.75C178.336 47.35 179.136 49.7 179.136 52.8V68H173.486V54.15C173.486 52.25 173.102 50.8333 172.336 49.9C171.569 48.9333 170.536 48.45 169.236 48.45C167.802 48.45 166.636 48.95 165.736 49.95C164.836 50.9167 164.386 52.3667 164.386 54.3V68H158.736ZM185.798 68V33H209.198V38.35H191.548V47.45H207.648V52.85H191.548V62.65H209.748V68H185.798ZM217.595 77.95C216.795 77.95 216.045 77.9167 215.345 77.85C214.645 77.8167 214.012 77.7333 213.445 77.6V72.45C214.012 72.5833 214.595 72.6833 215.195 72.75C215.828 72.85 216.428 72.9 216.995 72.9C217.895 72.9 218.562 72.8 218.995 72.6C219.462 72.4 219.828 72.0667 220.095 71.6C220.362 71.1333 220.662 70.5 220.995 69.7L221.645 67.95L212.145 43.95H217.995L224.095 61.2L229.845 43.95H235.595L225.795 71.35C224.995 73.55 224.012 75.2 222.845 76.3C221.712 77.4 219.962 77.95 217.595 77.95ZM249.118 68.55C245.618 68.55 242.785 67.5 240.618 65.4C238.452 63.2667 237.368 60.1167 237.368 55.95C237.368 53.35 237.852 51.1167 238.818 49.25C239.785 47.35 241.135 45.9 242.868 44.9C244.602 43.8667 246.585 43.35 248.818 43.35C251.052 43.35 252.952 43.9 254.518 45C256.085 46.0667 257.285 47.5333 258.118 49.4C258.952 51.2667 259.368 53.3667 259.368 55.7V57H242.918C243.052 59.4 243.685 61.1167 244.818 62.15C245.952 63.15 247.418 63.65 249.218 63.65C250.785 63.65 252.068 63.2833 253.068 62.55C254.068 61.7833 254.935 60.65 255.668 59.15L259.818 62.05C258.585 64.35 257.068 66.0167 255.268 67.05C253.502 68.05 251.452 68.55 249.118 68.55ZM243.168 52.65H253.818C253.552 51.0833 252.968 49.8833 252.068 49.05C251.202 48.1833 250.085 47.75 248.718 47.75C247.252 47.75 246.035 48.15 245.068 48.95C244.135 49.75 243.502 50.9833 243.168 52.65Z" fill="#405565"/>
<path d="M158.476 102.264C157.435 102.264 156.467 102.103 155.572 101.78C154.692 101.457 153.922 100.944 153.262 100.24C152.939 99.8733 152.976 99.558 153.372 99.294C153.695 99.0447 154.017 99.096 154.34 99.448C155.396 100.46 156.782 100.966 158.498 100.966C159.187 100.966 159.818 100.863 160.39 100.658C160.977 100.453 161.446 100.137 161.798 99.712C162.15 99.2867 162.326 98.7587 162.326 98.128C162.326 97.5707 162.209 97.0867 161.974 96.676C161.754 96.2653 161.314 95.906 160.654 95.598C159.994 95.29 159.011 95.0187 157.706 94.784C154.831 94.2413 153.394 92.8187 153.394 90.516C153.394 89.68 153.599 88.9467 154.01 88.316C154.421 87.6707 154.993 87.172 155.726 86.82C156.459 86.4533 157.31 86.27 158.278 86.27C159.158 86.27 159.965 86.4167 160.698 86.71C161.446 86.9887 162.143 87.3847 162.788 87.898C163.155 88.2353 163.162 88.558 162.81 88.866C162.517 89.1593 162.187 89.152 161.82 88.844C161.277 88.4333 160.72 88.1253 160.148 87.92C159.576 87.7147 158.945 87.612 158.256 87.612C157.259 87.612 156.43 87.8613 155.77 88.36C155.125 88.844 154.802 89.548 154.802 90.472C154.802 91.2787 155.059 91.9313 155.572 92.43C156.1 92.9287 157.046 93.3027 158.41 93.552C160.302 93.8893 161.659 94.4173 162.48 95.136C163.301 95.8547 163.712 96.8447 163.712 98.106C163.712 98.9713 163.477 99.7193 163.008 100.35C162.553 100.966 161.93 101.443 161.138 101.78C160.346 102.103 159.459 102.264 158.476 102.264ZM173.049 102.286C171.655 102.286 170.431 101.956 169.375 101.296C168.319 100.636 167.49 99.7047 166.889 98.502C166.302 97.2993 166.009 95.8913 166.009 94.278C166.009 92.6647 166.302 91.264 166.889 90.076C167.49 88.8733 168.319 87.942 169.375 87.282C170.431 86.6073 171.655 86.27 173.049 86.27C174.427 86.27 175.645 86.6073 176.701 87.282C177.757 87.942 178.578 88.8733 179.165 90.076C179.766 91.264 180.067 92.6647 180.067 94.278C180.067 95.8913 179.766 97.2993 179.165 98.502C178.578 99.7047 177.757 100.636 176.701 101.296C175.645 101.956 174.427 102.286 173.049 102.286ZM173.049 100.966C174.149 100.966 175.117 100.702 175.953 100.174C176.803 99.6313 177.463 98.8613 177.933 97.864C178.417 96.852 178.659 95.6567 178.659 94.278C178.659 92.8993 178.417 91.7113 177.933 90.714C177.463 89.7167 176.803 88.954 175.953 88.426C175.117 87.8833 174.149 87.612 173.049 87.612C171.949 87.612 170.973 87.8833 170.123 88.426C169.272 88.954 168.605 89.7167 168.121 90.714C167.637 91.7113 167.395 92.8993 167.395 94.278C167.395 95.6567 167.637 96.852 168.121 97.864C168.605 98.8613 169.272 99.6313 170.123 100.174C170.973 100.702 171.949 100.966 173.049 100.966ZM183.618 102C183.163 102 182.936 101.758 182.936 101.274V87.326C182.936 86.842 183.178 86.6 183.662 86.6H191.824C192.323 86.6 192.572 86.8127 192.572 87.238C192.572 87.6633 192.323 87.876 191.824 87.876H184.278V93.464H191.12C191.604 93.464 191.846 93.684 191.846 94.124C191.846 94.564 191.604 94.784 191.12 94.784H184.278V101.274C184.278 101.758 184.058 102 183.618 102ZM199.805 102C199.336 102 199.101 101.758 199.101 101.274V87.876H194.767C194.283 87.876 194.041 87.6633 194.041 87.238C194.041 86.8127 194.283 86.6 194.767 86.6H204.799C205.298 86.6 205.547 86.8127 205.547 87.238C205.547 87.6633 205.298 87.876 204.799 87.876H200.487V101.274C200.487 101.758 200.26 102 199.805 102ZM211.37 102C210.959 102 210.71 101.787 210.622 101.362L207.19 87.392C207.131 87.1427 207.146 86.952 207.234 86.82C207.336 86.6733 207.49 86.6 207.696 86.6C208.15 86.6 208.422 86.8127 208.51 87.238L211.458 99.536L214.934 87.216C215.036 86.8053 215.271 86.6 215.638 86.6C216.004 86.6 216.239 86.8053 216.342 87.216L219.818 99.536L222.744 87.238C222.832 86.8127 223.096 86.6 223.536 86.6C223.77 86.6 223.939 86.6733 224.042 86.82C224.144 86.952 224.166 87.1427 224.108 87.392L220.654 101.362C220.566 101.787 220.316 102 219.906 102C219.48 102 219.216 101.795 219.114 101.384L215.616 89.086L212.14 101.384C212.037 101.795 211.78 102 211.37 102ZM226.104 102C225.869 102 225.708 101.934 225.62 101.802C225.547 101.67 225.554 101.487 225.642 101.252L231.318 87.106C231.421 86.7687 231.663 86.6 232.044 86.6H232.154C232.535 86.6 232.777 86.7687 232.88 87.106L238.578 101.252C238.739 101.751 238.585 102 238.116 102H237.896C237.544 102 237.302 101.831 237.17 101.494L235.542 97.358H228.656L227.006 101.494C226.889 101.831 226.647 102 226.28 102H226.104ZM229.118 96.06H235.058L232.11 88.514L229.118 96.06ZM241.819 102C241.364 102 241.137 101.758 241.137 101.274V87.304C241.137 86.82 241.379 86.578 241.863 86.578H247.847C249.299 86.578 250.399 86.9153 251.147 87.59C251.91 88.2647 252.291 89.2693 252.291 90.604C252.291 93.112 250.971 94.4467 248.331 94.608L251.829 101.142C251.946 101.391 251.976 101.597 251.917 101.758C251.858 101.919 251.712 102 251.477 102H251.279C250.868 102 250.582 101.824 250.421 101.472L246.835 94.63H242.479V101.274C242.479 101.758 242.259 102 241.819 102ZM242.479 93.332H247.737C248.793 93.332 249.578 93.112 250.091 92.672C250.619 92.232 250.883 91.5427 250.883 90.604C250.883 89.6653 250.619 88.976 250.091 88.536C249.578 88.096 248.793 87.876 247.737 87.876H242.479V93.332ZM255.935 102C255.451 102 255.209 101.758 255.209 101.274V87.326C255.209 86.842 255.451 86.6 255.935 86.6H264.053C264.537 86.6 264.779 86.8127 264.779 87.238C264.779 87.6633 264.537 87.876 264.053 87.876H256.551V93.464H263.327C263.811 93.464 264.053 93.684 264.053 94.124C264.053 94.564 263.811 94.784 263.327 94.784H256.551V100.702H264.317C264.801 100.702 265.043 100.915 265.043 101.34C265.043 101.78 264.801 102 264.317 102H255.935ZM274.842 102C274.358 102 274.116 101.758 274.116 101.274V87.326C274.116 86.842 274.358 86.6 274.842 86.6H278.582C279.858 86.6 280.965 86.8053 281.904 87.216C282.842 87.612 283.612 88.1693 284.214 88.888C284.83 89.592 285.284 90.4133 285.578 91.352C285.886 92.276 286.04 93.2587 286.04 94.3C286.04 95.3413 285.886 96.3313 285.578 97.27C285.284 98.194 284.83 99.0153 284.214 99.734C283.612 100.438 282.842 100.995 281.904 101.406C280.965 101.802 279.858 102 278.582 102H274.842ZM275.458 100.702H278.516C279.968 100.702 281.141 100.409 282.036 99.822C282.945 99.2207 283.605 98.436 284.016 97.468C284.441 96.4853 284.654 95.4293 284.654 94.3C284.654 93.156 284.441 92.1 284.016 91.132C283.605 90.1493 282.945 89.3647 282.036 88.778C281.141 88.1767 279.968 87.876 278.516 87.876H275.458V100.702ZM289.644 102C289.16 102 288.918 101.758 288.918 101.274V87.326C288.918 86.842 289.16 86.6 289.644 86.6H297.762C298.246 86.6 298.488 86.8127 298.488 87.238C298.488 87.6633 298.246 87.876 297.762 87.876H290.26V93.464H297.036C297.52 93.464 297.762 93.684 297.762 94.124C297.762 94.564 297.52 94.784 297.036 94.784H290.26V100.702H298.026C298.51 100.702 298.752 100.915 298.752 101.34C298.752 101.78 298.51 102 298.026 102H289.644ZM306.609 102.022C306.183 102.022 305.905 101.817 305.773 101.406L300.537 87.436C300.346 86.8787 300.522 86.6 301.065 86.6C301.49 86.6 301.769 86.798 301.901 87.194L306.609 99.976L311.317 87.194C311.449 86.798 311.727 86.6 312.153 86.6C312.402 86.6 312.571 86.6807 312.659 86.842C312.747 86.9887 312.747 87.1867 312.659 87.436L307.445 101.406C307.283 101.817 307.005 102.022 306.609 102.022Z" fill="#312244"/>
<path d="M281.989 68.8C278.822 68.8 275.989 68.05 273.489 66.55C271.022 65.05 269.089 62.9333 267.689 60.2C266.289 57.4333 265.589 54.2 265.589 50.5C265.589 46.7667 266.289 43.5333 267.689 40.8C269.089 38.0333 271.022 35.9 273.489 34.4C275.989 32.8667 278.822 32.1 281.989 32.1C285.156 32.1 287.956 32.8667 290.389 34.4C292.856 35.9 294.789 38.0333 296.189 40.8C297.622 43.5333 298.339 46.7667 298.339 50.5C298.339 54.2 297.622 57.4333 296.189 60.2C294.789 62.9333 292.856 65.05 290.389 66.55C287.956 68.05 285.156 68.8 281.989 68.8ZM281.989 63.2C284.089 63.2 285.906 62.6833 287.439 61.65C288.972 60.5833 290.156 59.1 290.989 57.2C291.856 55.2667 292.289 53.0333 292.289 50.5C292.289 47.9333 291.856 45.7 290.989 43.8C290.156 41.8667 288.972 40.3833 287.439 39.35C285.906 38.2833 284.089 37.75 281.989 37.75C279.922 37.75 278.106 38.2833 276.539 39.35C274.972 40.3833 273.756 41.8667 272.889 43.8C272.056 45.7 271.639 47.9333 271.639 50.5C271.639 53.0333 272.056 55.2667 272.889 57.2C273.756 59.1 274.972 60.5833 276.539 61.65C278.106 62.6833 279.922 63.2 281.989 63.2ZM308.067 68L301.117 43.95H306.467L310.717 60L314.967 43.95H319.667L323.867 60L328.167 43.95H333.517L326.517 68H321.617L317.317 51.8L312.917 68H308.067ZM337.493 68V32.35H343.143V68H337.493Z" fill="#04052E"/>
<defs>
<linearGradient id="paint0_linear_1_78" x1="16.1943" y1="-3.6754" x2="64.9867" y2="35.8358" gradientUnits="userSpaceOnUse">
<stop stop-color="#212F45"/>
<stop offset="1" stop-color="#1B3A4B" stop-opacity="0.75"/>
</linearGradient>
<linearGradient id="paint1_linear_1_78" x1="57" y1="30" x2="115.111" y2="34.8641" gradientUnits="userSpaceOnUse">
<stop offset="0.396028" stop-color="#4D194D"/>
<stop offset="1" stop-color="#02010A"/>
</linearGradient>
<linearGradient id="paint2_linear_1_78" x1="83.6864" y1="21.8121" x2="140.877" y2="68.1244" gradientUnits="userSpaceOnUse">
<stop stop-color="#212F45"/>
<stop offset="1" stop-color="#1B3A4B" stop-opacity="0.98"/>
</linearGradient>
<clipPath id="clip0_1_78">
<rect width="24.809" height="38.66" fill="white" transform="translate(57)"/>
</clipPath>
<clipPath id="clip1_1_78">
<rect width="66.804" height="101.037" fill="white" transform="translate(0 16)"/>
</clipPath>
<clipPath id="clip2_1_78">
<rect width="71.377" height="103.74" fill="white" transform="translate(38 30)"/>
</clipPath>
</defs>
</svg>
