<svg xmlns="http://www.w3.org/2000/svg" version="1.1" xmlns:xlink="http://www.w3.org/1999/xlink" xmlns:svgjs="http://svgjs.dev/svgjs" width="363" height="134"><svg width="363" height="134" viewBox="0 0 363 134" fill="none" xmlns="http://www.w3.org/2000/svg">
<g clip-path="url(#clip0_1_110)">
<path d="M57 5.397V28.335L76.542 18.148L57 5.397Z" fill="#023E8A"></path>
<path d="M81.8091 19.95V38.66L64.9331 29.032L81.8091 19.95Z" fill="#0077B6"></path>
<path d="M80.839 0V14.752L67.811 6.367L80.839 0Z" fill="#03045E"></path>
</g>
<g clip-path="url(#clip1_1_110)">
<path d="M52.112 48.709L0 78.784V46.076L52.112 16V48.709Z" fill="#03045E"></path>
<path d="M66.804 117.037L0 78.858V46.149L66.804 84.328V117.037Z" fill="#023E8A"></path>
</g>
<g clip-path="url(#clip2_1_110)">
<path d="M57.2649 62.709L109.377 92.784V60.076L57.2649 30V62.709Z" fill="url(#paint0_linear_1_110)"></path>
<path d="M38 133.74L109.377 92.858V60.149L38 101.031V133.74Z" fill="url(#paint1_linear_1_110)"></path>
</g>
<path d="M150.557 48.8C147.391 48.8 144.557 48.05 142.057 46.55C139.591 45.05 137.657 42.9333 136.257 40.2C134.857 37.4333 134.157 34.2 134.157 30.5C134.157 26.7667 134.857 23.5333 136.257 20.8C137.657 18.0333 139.591 15.9 142.057 14.4C144.557 12.8667 147.391 12.1 150.557 12.1C153.724 12.1 156.524 12.8667 158.957 14.4C161.424 15.9 163.357 18.0333 164.757 20.8C166.191 23.5333 166.907 26.7667 166.907 30.5C166.907 34.2 166.191 37.4333 164.757 40.2C163.357 42.9333 161.424 45.05 158.957 46.55C156.524 48.05 153.724 48.8 150.557 48.8ZM150.557 43.2C152.657 43.2 154.474 42.6833 156.007 41.65C157.541 40.5833 158.724 39.1 159.557 37.2C160.424 35.2667 160.857 33.0333 160.857 30.5C160.857 27.9333 160.424 25.7 159.557 23.8C158.724 21.8667 157.541 20.3833 156.007 19.35C154.474 18.2833 152.657 17.75 150.557 17.75C148.491 17.75 146.674 18.2833 145.107 19.35C143.541 20.3833 142.324 21.8667 141.457 23.8C140.624 25.7 140.207 27.9333 140.207 30.5C140.207 33.0333 140.624 35.2667 141.457 37.2C142.324 39.1 143.541 40.5833 145.107 41.65C146.674 42.6833 148.491 43.2 150.557 43.2ZM171.736 48V23.95H176.786L177.086 26.8C177.752 25.8667 178.636 25.0667 179.736 24.4C180.836 23.7 182.136 23.35 183.636 23.35C186.136 23.35 188.169 24.15 189.736 25.75C191.336 27.35 192.136 29.7 192.136 32.8V48H186.486V34.15C186.486 32.25 186.102 30.8333 185.336 29.9C184.569 28.9333 183.536 28.45 182.236 28.45C180.802 28.45 179.636 28.95 178.736 29.95C177.836 30.9167 177.386 32.3667 177.386 34.3V48H171.736ZM198.798 48V13H222.198V18.35H204.548V27.45H220.648V32.85H204.548V42.65H222.748V48H198.798ZM230.595 57.95C229.795 57.95 229.045 57.9167 228.345 57.85C227.645 57.8167 227.012 57.7333 226.445 57.6V52.45C227.012 52.5833 227.595 52.6833 228.195 52.75C228.828 52.85 229.428 52.9 229.995 52.9C230.895 52.9 231.562 52.8 231.995 52.6C232.462 52.4 232.828 52.0667 233.095 51.6C233.362 51.1333 233.662 50.5 233.995 49.7L234.645 47.95L225.145 23.95H230.995L237.095 41.2L242.845 23.95H248.595L238.795 51.35C237.995 53.55 237.012 55.2 235.845 56.3C234.712 57.4 232.962 57.95 230.595 57.95ZM262.118 48.55C258.618 48.55 255.785 47.5 253.618 45.4C251.452 43.2667 250.368 40.1167 250.368 35.95C250.368 33.35 250.852 31.1167 251.818 29.25C252.785 27.35 254.135 25.9 255.868 24.9C257.602 23.8667 259.585 23.35 261.818 23.35C264.052 23.35 265.952 23.9 267.518 25C269.085 26.0667 270.285 27.5333 271.118 29.4C271.952 31.2667 272.368 33.3667 272.368 35.7V37H255.918C256.052 39.4 256.685 41.1167 257.818 42.15C258.952 43.15 260.418 43.65 262.218 43.65C263.785 43.65 265.068 43.2833 266.068 42.55C267.068 41.7833 267.935 40.65 268.668 39.15L272.818 42.05C271.585 44.35 270.068 46.0167 268.268 47.05C266.502 48.05 264.452 48.55 262.118 48.55ZM256.168 32.65H266.818C266.552 31.0833 265.968 29.8833 265.068 29.05C264.202 28.1833 263.085 27.75 261.718 27.75C260.252 27.75 259.035 28.15 258.068 28.95C257.135 29.75 256.502 30.9833 256.168 32.65Z" fill="#03045E"></path>
<path d="M173.476 82.264C172.435 82.264 171.467 82.1027 170.572 81.78C169.692 81.4573 168.922 80.944 168.262 80.24C167.939 79.8733 167.976 79.558 168.372 79.294C168.695 79.0447 169.017 79.096 169.34 79.448C170.396 80.46 171.782 80.966 173.498 80.966C174.187 80.966 174.818 80.8633 175.39 80.658C175.977 80.4527 176.446 80.1373 176.798 79.712C177.15 79.2867 177.326 78.7587 177.326 78.128C177.326 77.5707 177.209 77.0867 176.974 76.676C176.754 76.2653 176.314 75.906 175.654 75.598C174.994 75.29 174.011 75.0187 172.706 74.784C169.831 74.2413 168.394 72.8187 168.394 70.516C168.394 69.68 168.599 68.9467 169.01 68.316C169.421 67.6707 169.993 67.172 170.726 66.82C171.459 66.4533 172.31 66.27 173.278 66.27C174.158 66.27 174.965 66.4167 175.698 66.71C176.446 66.9887 177.143 67.3847 177.788 67.898C178.155 68.2353 178.162 68.558 177.81 68.866C177.517 69.1593 177.187 69.152 176.82 68.844C176.277 68.4333 175.72 68.1253 175.148 67.92C174.576 67.7147 173.945 67.612 173.256 67.612C172.259 67.612 171.43 67.8613 170.77 68.36C170.125 68.844 169.802 69.548 169.802 70.472C169.802 71.2787 170.059 71.9313 170.572 72.43C171.1 72.9287 172.046 73.3027 173.41 73.552C175.302 73.8893 176.659 74.4173 177.48 75.136C178.301 75.8547 178.712 76.8447 178.712 78.106C178.712 78.9713 178.477 79.7193 178.008 80.35C177.553 80.966 176.93 81.4427 176.138 81.78C175.346 82.1027 174.459 82.264 173.476 82.264ZM188.049 82.286C186.655 82.286 185.431 81.956 184.375 81.296C183.319 80.636 182.49 79.7047 181.889 78.502C181.302 77.2993 181.009 75.8913 181.009 74.278C181.009 72.6647 181.302 71.264 181.889 70.076C182.49 68.8733 183.319 67.942 184.375 67.282C185.431 66.6073 186.655 66.27 188.049 66.27C189.427 66.27 190.645 66.6073 191.701 67.282C192.757 67.942 193.578 68.8733 194.165 70.076C194.766 71.264 195.067 72.6647 195.067 74.278C195.067 75.8913 194.766 77.2993 194.165 78.502C193.578 79.7047 192.757 80.636 191.701 81.296C190.645 81.956 189.427 82.286 188.049 82.286ZM188.049 80.966C189.149 80.966 190.117 80.702 190.953 80.174C191.803 79.6313 192.463 78.8613 192.933 77.864C193.417 76.852 193.659 75.6567 193.659 74.278C193.659 72.8993 193.417 71.7113 192.933 70.714C192.463 69.7167 191.803 68.954 190.953 68.426C190.117 67.8833 189.149 67.612 188.049 67.612C186.949 67.612 185.973 67.8833 185.123 68.426C184.272 68.954 183.605 69.7167 183.121 70.714C182.637 71.7113 182.395 72.8993 182.395 74.278C182.395 75.6567 182.637 76.852 183.121 77.864C183.605 78.8613 184.272 79.6313 185.123 80.174C185.973 80.702 186.949 80.966 188.049 80.966ZM198.618 82C198.163 82 197.936 81.758 197.936 81.274V67.326C197.936 66.842 198.178 66.6 198.662 66.6H206.824C207.323 66.6 207.572 66.8127 207.572 67.238C207.572 67.6633 207.323 67.876 206.824 67.876H199.278V73.464H206.12C206.604 73.464 206.846 73.684 206.846 74.124C206.846 74.564 206.604 74.784 206.12 74.784H199.278V81.274C199.278 81.758 199.058 82 198.618 82ZM214.805 82C214.336 82 214.101 81.758 214.101 81.274V67.876H209.767C209.283 67.876 209.041 67.6633 209.041 67.238C209.041 66.8127 209.283 66.6 209.767 66.6H219.799C220.298 66.6 220.547 66.8127 220.547 67.238C220.547 67.6633 220.298 67.876 219.799 67.876H215.487V81.274C215.487 81.758 215.26 82 214.805 82ZM226.37 82C225.959 82 225.71 81.7873 225.622 81.362L222.19 67.392C222.131 67.1427 222.146 66.952 222.234 66.82C222.336 66.6733 222.49 66.6 222.696 66.6C223.15 66.6 223.422 66.8127 223.51 67.238L226.458 79.536L229.934 67.216C230.036 66.8053 230.271 66.6 230.638 66.6C231.004 66.6 231.239 66.8053 231.342 67.216L234.818 79.536L237.744 67.238C237.832 66.8127 238.096 66.6 238.536 66.6C238.77 66.6 238.939 66.6733 239.042 66.82C239.144 66.952 239.166 67.1427 239.108 67.392L235.654 81.362C235.566 81.7873 235.316 82 234.906 82C234.48 82 234.216 81.7947 234.114 81.384L230.616 69.086L227.14 81.384C227.037 81.7947 226.78 82 226.37 82ZM241.104 82C240.869 82 240.708 81.934 240.62 81.802C240.547 81.67 240.554 81.4867 240.642 81.252L246.318 67.106C246.421 66.7687 246.663 66.6 247.044 66.6H247.154C247.535 66.6 247.777 66.7687 247.88 67.106L253.578 81.252C253.739 81.7507 253.585 82 253.116 82H252.896C252.544 82 252.302 81.8313 252.17 81.494L250.542 77.358H243.656L242.006 81.494C241.889 81.8313 241.647 82 241.28 82H241.104ZM244.118 76.06H250.058L247.11 68.514L244.118 76.06ZM256.819 82C256.364 82 256.137 81.758 256.137 81.274V67.304C256.137 66.82 256.379 66.578 256.863 66.578H262.847C264.299 66.578 265.399 66.9153 266.147 67.59C266.91 68.2647 267.291 69.2693 267.291 70.604C267.291 73.112 265.971 74.4467 263.331 74.608L266.829 81.142C266.946 81.3913 266.976 81.5967 266.917 81.758C266.858 81.9193 266.712 82 266.477 82H266.279C265.868 82 265.582 81.824 265.421 81.472L261.835 74.63H257.479V81.274C257.479 81.758 257.259 82 256.819 82ZM257.479 73.332H262.737C263.793 73.332 264.578 73.112 265.091 72.672C265.619 72.232 265.883 71.5427 265.883 70.604C265.883 69.6653 265.619 68.976 265.091 68.536C264.578 68.096 263.793 67.876 262.737 67.876H257.479V73.332ZM270.935 82C270.451 82 270.209 81.758 270.209 81.274V67.326C270.209 66.842 270.451 66.6 270.935 66.6H279.053C279.537 66.6 279.779 66.8127 279.779 67.238C279.779 67.6633 279.537 67.876 279.053 67.876H271.551V73.464H278.327C278.811 73.464 279.053 73.684 279.053 74.124C279.053 74.564 278.811 74.784 278.327 74.784H271.551V80.702H279.317C279.801 80.702 280.043 80.9147 280.043 81.34C280.043 81.78 279.801 82 279.317 82H270.935ZM289.842 82C289.358 82 289.116 81.758 289.116 81.274V67.326C289.116 66.842 289.358 66.6 289.842 66.6H293.582C294.858 66.6 295.965 66.8053 296.904 67.216C297.842 67.612 298.612 68.1693 299.214 68.888C299.83 69.592 300.284 70.4133 300.578 71.352C300.886 72.276 301.04 73.2587 301.04 74.3C301.04 75.3413 300.886 76.3313 300.578 77.27C300.284 78.194 299.83 79.0153 299.214 79.734C298.612 80.438 297.842 80.9953 296.904 81.406C295.965 81.802 294.858 82 293.582 82H289.842ZM290.458 80.702H293.516C294.968 80.702 296.141 80.4087 297.036 79.822C297.945 79.2207 298.605 78.436 299.016 77.468C299.441 76.4853 299.654 75.4293 299.654 74.3C299.654 73.156 299.441 72.1 299.016 71.132C298.605 70.1493 297.945 69.3647 297.036 68.778C296.141 68.1767 294.968 67.876 293.516 67.876H290.458V80.702ZM304.644 82C304.16 82 303.918 81.758 303.918 81.274V67.326C303.918 66.842 304.16 66.6 304.644 66.6H312.762C313.246 66.6 313.488 66.8127 313.488 67.238C313.488 67.6633 313.246 67.876 312.762 67.876H305.26V73.464H312.036C312.52 73.464 312.762 73.684 312.762 74.124C312.762 74.564 312.52 74.784 312.036 74.784H305.26V80.702H313.026C313.51 80.702 313.752 80.9147 313.752 81.34C313.752 81.78 313.51 82 313.026 82H304.644ZM321.609 82.022C321.183 82.022 320.905 81.8167 320.773 81.406L315.537 67.436C315.346 66.8787 315.522 66.6 316.065 66.6C316.49 66.6 316.769 66.798 316.901 67.194L321.609 79.976L326.317 67.194C326.449 66.798 326.727 66.6 327.153 66.6C327.402 66.6 327.571 66.6807 327.659 66.842C327.747 66.9887 327.747 67.1867 327.659 67.436L322.445 81.406C322.283 81.8167 322.005 82.022 321.609 82.022Z" fill="#140152"></path>
<path d="M294.989 48.8C291.822 48.8 288.989 48.05 286.489 46.55C284.022 45.05 282.089 42.9333 280.689 40.2C279.289 37.4333 278.589 34.2 278.589 30.5C278.589 26.7667 279.289 23.5333 280.689 20.8C282.089 18.0333 284.022 15.9 286.489 14.4C288.989 12.8667 291.822 12.1 294.989 12.1C298.156 12.1 300.956 12.8667 303.389 14.4C305.856 15.9 307.789 18.0333 309.189 20.8C310.622 23.5333 311.339 26.7667 311.339 30.5C311.339 34.2 310.622 37.4333 309.189 40.2C307.789 42.9333 305.856 45.05 303.389 46.55C300.956 48.05 298.156 48.8 294.989 48.8ZM294.989 43.2C297.089 43.2 298.906 42.6833 300.439 41.65C301.972 40.5833 303.156 39.1 303.989 37.2C304.856 35.2667 305.289 33.0333 305.289 30.5C305.289 27.9333 304.856 25.7 303.989 23.8C303.156 21.8667 301.972 20.3833 300.439 19.35C298.906 18.2833 297.089 17.75 294.989 17.75C292.922 17.75 291.106 18.2833 289.539 19.35C287.972 20.3833 286.756 21.8667 285.889 23.8C285.056 25.7 284.639 27.9333 284.639 30.5C284.639 33.0333 285.056 35.2667 285.889 37.2C286.756 39.1 287.972 40.5833 289.539 41.65C291.106 42.6833 292.922 43.2 294.989 43.2ZM321.067 48L314.117 23.95H319.467L323.717 40L327.967 23.95H332.667L336.867 40L341.167 23.95H346.517L339.517 48H334.617L330.317 31.8L325.917 48H321.067ZM350.493 48V12.35H356.143V48H350.493Z" fill="#023E8A"></path>
<defs>
<linearGradient id="SvgjsLinearGradient1067" x1="56.9999" y1="30" x2="115.11" y2="34.8641" gradientUnits="userSpaceOnUse">
<stop offset="0.396028" stop-color="#023E8A"></stop>
<stop offset="1" stop-color="#0077B6"></stop>
</linearGradient>
<linearGradient id="SvgjsLinearGradient1066" x1="83.6864" y1="21.8121" x2="140.877" y2="68.1244" gradientUnits="userSpaceOnUse">
<stop stop-color="#03045E"></stop>
<stop offset="1" stop-color="#03045E" stop-opacity="0.98"></stop>
</linearGradient>
<clipPath id="SvgjsClipPath1065">
<rect width="24.809" height="38.66" fill="white" transform="translate(57)"></rect>
</clipPath>
<clipPath id="SvgjsClipPath1064">
<rect width="66.804" height="101.037" fill="white" transform="translate(0 16)"></rect>
</clipPath>
<clipPath id="SvgjsClipPath1063">
<rect width="71.377" height="103.74" fill="white" transform="translate(38 30)"></rect>
</clipPath>
</defs>
</svg><style>@media (prefers-color-scheme: light) { :root { filter: none; } }
@media (prefers-color-scheme: dark) { :root { filter: none; } }
</style></svg>